<svg xmlns="http://www.w3.org/2000/svg" viewBox="0 0 240 240"><circle cx="120" cy="120" r="120" fill="#5865f2"/><path d="M168.8 84.2a115.2 115.2 0 00-28.5-8.8 86.4 86.4 0 00-3.8 7.8 107 107 0 00-32.1 0 79.4 79.4 0 00-3.9-7.8 114.8 114.8 0 00-28.5 8.9C52.5 113.5 48 142.1 52 170.2a116 116 0 0035.4 17.9 87.2 87.2 0 007.6-12.4 74.8 74.8 0 01-12-5.7c1-.7 2-1.5 3-2.3a82.6 82.6 0 0070.5 0c1 .8 2 1.6 3 2.3a75 75 0 01-12 5.8 87.6 87.6 0 007.6 12.3 115.6 115.6 0 0035.5-17.9c4.6-33.1-8.2-61.3-32.8-86.1zM99.3 153.7c-7.4 0-13.5-6.8-13.5-15.2s5.9-15.2 13.5-15.2 13.6 6.8 13.5 15.2c0 8.4-6 15.2-13.5 15.2zm41.4 0c-7.4 0-13.5-6.8-13.5-15.2s5.9-15.2 13.5-15.2 13.6 6.8 13.5 15.2c0 8.4-5.9 15.2-13.5 15.2z" fill="#fff"/></svg>