<svg xmlns="http://www.w3.org/2000/svg" viewBox="0 0 240 240"><circle cx="120" cy="120" r="120" fill="#25d366"/><path d="M120 44.3c-41.8 0-75.7 33.9-75.7 75.7 0 13.3 3.5 26.3 10.1 37.7L44.3 195.7l39.2-10.3c11 6 23.4 9.1 36.5 9.1 41.8 0 75.7-33.9 75.7-75.7S161.8 44.3 120 44.3zm0 138.5c-11.3 0-22.4-3-32.1-8.8l-2.3-1.4-23.8 6.2 6.4-23.2-1.5-2.4c-6.3-10-9.6-21.6-9.6-33.4 0-34.6 28.2-62.8 62.8-62.8S182.8 85.4 182.8 120 154.6 182.8 120 182.8z" fill="#fff"/><path d="M155.2 137.7c-1.9-1-11.3-5.6-13.1-6.2-1.8-.6-3-.9-4.3.9-1.3 1.9-4.9 6.2-6 7.5-1.1 1.3-2.2.9-4.1 0-1.9-1-8-2.9-15.2-9.4-5.6-5-9.4-11.2-10.5-13.1-1.1-1.9-.1-2.9.8-3.8.8-.8 1.9-2.2 2.8-3.2.9-1.1 1.3-1.9 1.9-3.1.6-1.3.3-2.4-.2-3.4-.4-1-4.3-10.3-5.8-14.1-1.5-3.7-3.1-3.2-4.3-3.3-1.1 0-2.4-.1-3.7-.1-1.3 0-3.4.5-5.2 2.4-1.8 1.9-6.8 6.6-6.8 16.2s7 18.8 7.9 20.1c1 1.3 13.7 20.9 33.2 29.3 4.6 2 8.3 3.2 11.1 4.1 4.7 1.5 8.9 1.3 12.3.8 3.8-.6 11.3-4.6 12.9-9.1 1.6-4.5 1.6-8.3 1.1-9.1-.5-.8-1.8-1.3-3.7-2.2z" fill="#fff"/></svg>